<svg xmlns="http://www.w3.org/2000/svg" x="0" y="0" viewBox="0 0 88 22" xml:space="preserve" enable-background="new 0 0 88 22">
  <g>
    <path d="M9.93 7.5c-.38 0-.73.15-.99.42-.26.27-.41.63-.41 1.01 0 .78.63 1.41 1.4 1.41s1.4-.63 1.4-1.41c0-.38-.15-.74-.41-1.01-.26-.27-.61-.42-.99-.42z" fill="#4285F4"/>
    <path d="M15.45 7.5c-.78 0-1.4.63-1.4 1.41 0 .78.62 1.41 1.4 1.41.38 0 .73-.15.99-.42.26-.27.41-.63.41-1.01 0-.38-.15-.74-.41-1.01-.26-.27-.61-.42-.99-.42z" fill="#EA4335"/>
    <path d="M9.93 12.27c-.38 0-.73.15-.99.42-.26.27-.41.63-.41 1.01 0 .78.63 1.41 1.4 1.41s1.4-.63 1.4-1.41c0-.38-.15-.74-.41-1.01-.26-.27-.61-.42-.99-.42z" fill="#FBBC04"/>
    <path d="M15.45 12.27c-.78 0-1.4.63-1.4 1.41 0 .78.62 1.41 1.4 1.41.38 0 .73-.15.99-.42.26-.27.41-.63.41-1.01 0-.38-.15-.74-.41-1.01-.26-.27-.61-.42-.99-.42z" fill="#34A853"/>
    <text x="20" y="13" font-family="Arial, sans-serif" font-size="8" fill="currentColor">Google</text>
    <path d="M65 8c-2.2 0-4 1.8-4 4s1.8 4 4 4h7c.6 0 1-.4 1-1s-.4-1-1-1h-7c-1.1 0-2-.9-2-2s.9-2 2-2h7c.6 0 1-.4 1-1s-.4-1-1-1h-7z" fill="currentColor"/>
    <path d="M82 11c0-1.7-1.3-3-3-3h-4v2h4c.6 0 1 .4 1 1v2c0 .6-.4 1-1 1h-4v2h4c1.7 0 3-1.3 3-3v-2z" fill="currentColor"/>
  </g>
</svg>