<svg xmlns="http://www.w3.org/2000/svg" x="0" y="0" viewBox="0 0 88 22" xml:space="preserve" enable-background="new 0 0 88 22">
  <g>
    <path d="M72.7 8.3h-4.9v1.9h4.6v1.5h-4.6v2.1h5v1.6h-6.7V6.7h6.6v1.6zM75.8 15.4V8.2h1.7v7.2h-1.7zm0-8.7V5.5h1.7v1.2h-1.7zM83 11.2v4.2h-1.7v-4c0-1.1-.5-1.7-1.4-1.7-.6 0-1.1.3-1.4.8s-.5 1.2-.5 1.9v3h-1.7v-7.2h1.6v1c.6-.8 1.5-1.2 2.4-1.2 1.8 0 2.7 1.1 2.7 3.2zM88 13.6c0 .5-.1 1-.3 1.4-.6 1.4-2 2.3-3.5 2.3-1.3 0-2.5-.6-3.2-1.6V17h.2c.8.9 2 1.5 3.3 1.5 2.3 0 4.2-1.8 4.2-4.1s-1.9-4.1-4.2-4.1c-1.1 0-2.1.4-2.9 1.1v-.2c0-.9.7-1.6 1.6-1.6.5 0 1 .2 1.3.6l.9-1.3c-.5-.5-1.2-.8-2-.8-1.6 0-2.9 1.3-2.9 2.9v5.4c0 1.6 1.3 2.9 2.9 2.9 1.6 0 2.9-1.3 2.9-2.9v-1.7h-1.7v1.7c0 .7-.6 1.3-1.3 1.3s-1.3-.6-1.3-1.3v-3.2c0-.7.6-1.3 1.3-1.3s1.3.6 1.3 1.3c0 .2-.1.4-.2.6l1.4.8c.2-.4.3-.9.3-1.4 0-1.6-1.3-2.9-2.9-2.9s-2.9 1.3-2.9 2.9v3.2c0 1.6 1.3 2.9 2.9 2.9s2.9-1.3 2.9-2.9c0-1.3-.8-2.4-2-2.8v1.3c.7.3 1.2 1 1.2 1.8z" fill="currentColor"/>
    <path d="M37.3 8.3c-.9 0-1.7.4-2.2 1.1v-.9h-1.6v7.1h1.7v-4c0-1.1.5-1.7 1.4-1.7s1.4.6 1.4 1.7v4h1.7v-4.2c0-2.1-.9-3.1-2.4-3.1zM50.8 13.6v1.8h-1.7v-1.8c0-.7-.6-1.3-1.3-1.3s-1.3.6-1.3 1.3v1.8h-1.7v-1.8c0-1.6 1.3-2.9 2.9-2.9s3.1 1.3 3.1 2.9zM58.3 11.2v4.2h-1.7v-4c0-1.1-.5-1.7-1.4-1.7-.6 0-1.1.3-1.4.8s-.5 1.2-.5 1.9v3h-1.7v-7.2h1.6v1c.6-.8 1.5-1.2 2.4-1.2 1.8 0 2.7 1.1 2.7 3.2zM67.4 13.6c0 1.6-1.3 2.9-2.9 2.9s-2.9-1.3-2.9-2.9v-5.4h1.7v5.4c0 .7.6 1.3 1.3 1.3s1.3-.6 1.3-1.3V8.2h1.5v5.4zM42.8 8.2h-1.6v1c-.6-.8-1.5-1.2-2.4-1.2-1.8 0-2.7 1.1-2.7 3.2v4.2h1.7v-4c0-1.1.5-1.7 1.4-1.7.6 0 1.1.3 1.4.8s.5 1.2.5 1.9v3h1.7V8.2z" fill="currentColor"/>
    <path d="M23.1 0C10.3 0 0 10.3 0 23s10.3 23 23.1 23 23.1-10.3 23.1-23S35.9 0 23.1 0zm0 42.1c-10.5 0-19.1-8.6-19.1-19.1S12.6 3.9 23.1 3.9 42.2 12.5 42.2 23 33.6 42.1 23.1 42.1z" fill="#FF5722" transform="scale(.48)"/>
    <path d="M15.1 11.4c-.7 0-1.3.6-1.3 1.3v3.8c0 .7.6 1.3 1.3 1.3h15.5c.7 0 1.3-.6 1.3-1.3v-3.8c0-.7-.6-1.3-1.3-1.3H15.1zm13.1 4.4h-10.7v-2.5h10.7v2.5z" fill="#FF5722"/>
  </g>
</svg>