<svg xmlns="http://www.w3.org/2000/svg" x="0" y="0" viewBox="0 0 88 22" xml:space="preserve" enable-background="new 0 0 88 22">
  <g>
    <path d="M1 1h7.5v7.5H1V1zm0 9.5h7.5V18H1v-7.5zm9.5-9.5H18v7.5h-7.5V1zm0 9.5H18V18h-7.5v-7.5z" fill="#F25022"/>
    <path d="M19 1h7.5v7.5H19V1z" fill="#7FBA00"/>
    <path d="M19 10.5h7.5V18H19v-7.5z" fill="#00A4EF"/>
    <path d="M28.5 1H36v7.5h-7.5V1z" fill="#FFB900"/>
    <path d="M28.5 10.5H36V18h-7.5v-7.5z" fill="#F25022"/>
    <path d="M41.5 3.5h3.1V8c.7-1.1 1.8-1.7 3.2-1.7 2.7 0 4.3 2.1 4.3 5v3.2h-3v-2.8c0-1.6-.7-2.4-1.9-2.4-1.3 0-2.1.9-2.1 2.5v2.7h-3V3.5zm17 10.8c2.8 0 4.8-2.1 4.8-4.9s-2-4.9-4.8-4.9-4.8 2.1-4.8 4.9 2 4.9 4.8 4.9zm0-2.4c-1.3 0-2.2-1-2.2-2.5s.9-2.5 2.2-2.5 2.2 1 2.2 2.5-.9 2.5-2.2 2.5zM68.5 14c.7.5 1.6.7 2.5.7 1.2 0 1.8-.4 1.8-1s-.4-.9-1.5-1.1l-1.6-.3c-2.1-.4-3.1-1.4-3.1-3 0-2 1.6-3.4 4.2-3.4 1.2 0 2.4.3 3.3.8l-1 2.2c-.6-.4-1.3-.6-2.1-.6-1.1 0-1.6.4-1.6 1s.5.8 1.4 1l1.6.3c2.2.4 3.2 1.5 3.2 3.1 0 2.1-1.7 3.5-4.4 3.5-1.5 0-2.9-.4-3.9-1.1l1.2-2.1zm11.9 0c.7.5 1.6.7 2.5.7 1.2 0 1.8-.4 1.8-1s-.4-.9-1.5-1.1l-1.6-.3c-2.1-.4-3.1-1.4-3.1-3 0-2 1.6-3.4 4.2-3.4 1.2 0 2.4.3 3.3.8l-1 2.2c-.6-.4-1.3-.6-2.1-.6-1.1 0-1.6.4-1.6 1s.5.8 1.4 1l1.6.3c2.2.4 3.2 1.5 3.2 3.1 0 2.1-1.7 3.5-4.4 3.5-1.5 0-2.9-.4-3.9-1.1l1.2-2.1z" fill="#5A5A5A"/>
  </g>
</svg>