<svg xmlns="http://www.w3.org/2000/svg" x="0" y="0" viewBox="0 0 88 22" xml:space="preserve" enable-background="new 0 0 88 22">
  <g>
    <path d="M11 2a9 9 0 1 0 0 18 9 9 0 0 0 0-18zm0 16.2A7.2 7.2 0 1 1 11 3.8a7.2 7.2 0 0 1 0 14.4z" fill="currentColor"/>
    <path d="M11 7.5a3.5 3.5 0 1 0 0 7 3.5 3.5 0 0 0 0-7zm0 5.6a2.1 2.1 0 1 1 0-4.2 2.1 2.1 0 0 1 0 4.2z" fill="currentColor"/>
    <path d="M11 9.2a1.8 1.8 0 1 0 0 3.6 1.8 1.8 0 0 0 0-3.6zm0 2.4a.6.6 0 1 1 0-1.2.6.6 0 0 1 0 1.2z" fill="#00A67E"/>
    <path d="M11 1C5.5 1 1 5.5 1 11s4.5 10 10 10 10-4.5 10-10S16.5 1 11 1zm0 18.5c-4.7 0-8.5-3.8-8.5-8.5S6.3 2.5 11 2.5s8.5 3.8 8.5 8.5-3.8 8.5-8.5 8.5z" stroke="currentColor" stroke-width=".5" fill="none"/>
    <text x="25" y="13" font-family="Arial, sans-serif" font-size="8" fill="currentColor">OpenAI</text>
  </g>
</svg>