<svg xmlns="http://www.w3.org/2000/svg" x="0" y="0" viewBox="0 0 88 22" xml:space="preserve" enable-background="new 0 0 88 22">
  <g>
    <path d="M8.5 1.5a7 7 0 1 0 0 14 7 7 0 0 0 0-14zm0 12.6a5.6 5.6 0 1 1 0-11.2 5.6 5.6 0 0 1 0 11.2z" fill="#FFD500"/>
    <path d="M8.5 5.5a3 3 0 1 0 0 6 3 3 0 0 0 0-6zm0 4.8a1.8 1.8 0 1 1 0-3.6 1.8 1.8 0 0 1 0 3.6z" fill="#FFD500"/>
    <path d="M8.5 19.5c-4.4 0-8-3.6-8-8s3.6-8 8-8 8 3.6 8 8-3.6 8-8 8zm0-14.5c-3.6 0-6.5 2.9-6.5 6.5s2.9 6.5 6.5 6.5 6.5-2.9 6.5-6.5-2.9-6.5-6.5-6.5z" fill="#FFD500"/>
    <text x="20" y="13" font-family="Arial, sans-serif" font-size="9" font-weight="bold" fill="currentColor">Sprint</text>
    <path d="M65 8h-3v2h3c.6 0 1 .4 1 1s-.4 1-1 1h-3v2h3c1.7 0 3-1.3 3-3s-1.3-3-3-3z" fill="currentColor"/>
    <path d="M69 6h-7v10h2V8h5c2.8 0 5-2.2 5-5h-2c0 1.7-1.3 3-3 3z" fill="currentColor"/>
  </g>
</svg>